# xmcd
#
# Track frame offsets:
# 150
# 14520
# 28070
# 40902
# 59247
# 71872
# 86125
# 101212
# 115235
# 134392
# 149685
# 164872
# 178280
# 191207
#
# Disc length: 2780 seconds
#
#
# Revision: 0
# Processed by: cddbd v1.5.2PL0 Copyright (c) Steve Scherf et al.
# Submitted via: FreeRIP 2.951 
#
DISCID=ec0ada0e
DTITLE=Kjell Roos - Nu börjar livet
DYEAR=2001
DGENRE=Dansband
TTITLE0=Kjell Roos - Nu börjar livet
TTITLE1=Kjell Roos - Bara att se dig igen
TTITLE2=Kjell Roos - När du kommer
TTITLE3=Kjell Roos - Så länge mitt hjärta kan slå
TTITLE4=Kjell Roos - Rockin' Robin
TTITLE5=Kjell Roos - Ain't that lonely yet
TTITLE6=Kjell Roos - Låt oss leva för varann
TTITLE7=Kjell Roos - Min bästa vän
TTITLE8=Kjell Roos - Jag önskar dig allt gott på jorden
TTITLE9=Kjell Roos - Take good care of my baby
TTITLE10=Kjell Roos - Tillbaks till fantasin
TTITLE11=Kjell Roos - Tropical depression
TTITLE12=Kjell Roos - Hela vägen hem
TTITLE13=Kjell Roos - Tårarna rinner
EXTD=
EXTT0=
EXTT1=
EXTT2=
EXTT3=
EXTT4=
EXTT5=
EXTT6=
EXTT7=
EXTT8=
EXTT9=
EXTT10=
EXTT11=
EXTT12=
EXTT13=
PLAYORDER=
